{"title":"Rush 2013 WEBRiP HC XviD Mp3-KingStoner ","uid":9352686,"size":1619407180,"categoryP":"video","categoryS":"movies","magnet":"?xt=urn:btih:f861d9f724d967da7ae881f42d44d4e0397ff1a6&amp;dn=Rush+2013+WEBRiP+HC+XviD+Mp3-KingStoner+&amp;tr=udp%3A%2F%2Ftracker.openbittorrent.com%3A80&amp;tr=udp%3A%2F%2Fopen.demonii.com%3A1337&amp;tr=udp%3A%2F%2Ftracker.coppersurfer.tk%3A6969&amp;tr=udp%3A%2F%2Fexodus.desync.com%3A6969","seeders":0,"leechers":0,"uploader":"TeX","files":5,"time":1387169189,"description":"Rush 2013 WEBRiP HC XviD Mp3-KingStoner\n\nHC Arabic &lt;a href=&quot;\nhttp://www.imdb.com/title/tt1979320&quot; rel=&quot;nofollow&quot; target=&quot;_NEW&quot;&gt;\nhttp://www.imdb.com/title/tt1979320&lt;/a&gt;\nRatings: 8.3/10 from 49,739 users   Metascore:  75/100  \nGenres:  Action |  Biography |  Drama |  Sport\nCountry: USA | Germany | UK\nLanguage: English | German | Italian | French\n\n\n\nComplete name: C:Rush 2013 WEBRiP HC XviD Mp3-KingStonerRush 2013 WEBRiP HC XviD Mp3-KingStoner.avi\nFormat  : AVI\nFormat/Info  : Audio Video Interleave\nFormat profile  : OpenDML\nFile size : 1.51 GiB\nDuration : 1h 58mn\nOverall bit rate  : 1 824 Kbps\nWriting application: MEncoder SVN-r33883(20110719-gcc4.5.2)\nWriting library : MPlayer\n\n\n\nID  : 0\nFormat : MPEG-4 Visual\nFormat profile  : Advanced Simple@L5\nFormat settings, BVOP   : 2\nFormat settings, QPel  : No\nFormat settings, GMC    : No warppoints\nFormat settings, Matrix : Default (H.263)\nCodec ID : XVID\nCodec ID/Hint : XviD\nDuration : 1h 58mn\nBit rate : 1 618 Kbps\nWidth : 720 pixels\nHeight : 450 pixels\nDisplay aspect ratio: 1.600\nFrame rate  : 23.976 fps\nColor space : YUV\nChroma subsampling  : 4:2:0\nBit depth: 8 bits\nScan type   : Progressive\nCompression mode  : Lossy\nBits/(Pixel*Frame)  : 0.208\nStream size: 1.34 GiB (89%)\nWriting library: XviD 1.2.1 (UTC 2008-12-04)\n\n\nID  : 1\nFormat : MPEG Audio\nFormat version : Version 1\nFormat profile : Layer 3\nMode: Joint stereo\nMode extension: MS Stereo\nCodec ID : 55\nCodec ID/Hint : MP3\nDuration  : 1h 58mn\nBit rate mode: Constant\nBit rate  : 192 Kbps\nChannel(s) : 2 channels\nSampling rate: 44.1 KHz\nCompression mode: Lossy\nDelay relative to video: 42ms\nStream size: 163 MiB (11%)\nAlignment: Aligned on interleaves\nInterleave, duration: 26 ms (0.63 video frame)\nInterleave, preload duration: 522 ms\n\n\ncast\n\nDirector: Ron Howard\nWriter: Peter Morgan (screenplay)\nStars: Daniel Br?hl, Chris Hemsworth, Olivia Wilde\n\n\nPLOT\n\n\nA re-creation of the merciless 1970s rivalry between Formula One rivals James Hunt and Niki Lauda.\n","torrent":{"xt":"urn:btih:f861d9f724d967da7ae881f42d44d4e0397ff1a6","amp;dn":"Rush+2013+WEBRiP+HC+XviD+Mp3-KingStoner+","amp;tr":["udp%3A%2F%2Ftracker.openbittorrent.com%3A80","udp%3A%2F%2Fopen.demonii.com%3A1337","udp%3A%2F%2Ftracker.coppersurfer.tk%3A6969","udp%3A%2F%2Fexodus.desync.com%3A6969"],"infoHash":"f861d9f724d967da7ae881f42d44d4e0397ff1a6","infoHashBuffer":{"type":"Buffer","data":[248,97,217,247,36,217,103,218,122,232,129,244,45,68,212,224,57,127,241,166]},"announce":[],"urlList":[]}}